# xmcd
#
# Track frame offsets: 
#        150
#        16155
#        34515
#        55800
#        60052
#        77437
#        87732
#        107957
#
# Disc length: 1688 seconds
#
# Revision: 6
# Processed by: cddbd v1.5.2PL0 Copyright (c) Steve Scherf et al.
# Submitted via: ExactAudioCopy v1.1
#
DISCID=53069608
DTITLE=Johnny, Louis and Char - Oira
DYEAR=1981
DGENRE=J-Rock
TTITLE0=Head Song
TTITLE1=Doubt
TTITLE2=You Keep Snowin'
TTITLE3=Kindesalter
TTITLE4=Welcome For My Baby
TTITLE5=Hear Me In Heaven
TTITLE6=Moon Beam
TTITLE7=Hold Me Tight
EXTD=YEAR: 1981
EXTT0=
EXTT1=
EXTT2=
EXTT3=
EXTT4=
EXTT5=
EXTT6=
EXTT7=
PLAYORDER=
